<svg width="900" height="1100" viewBox="0 0 900 1100" fill="none" xmlns="http://www.w3.org/2000/svg">
  <defs>
    <linearGradient id="page" x1="114" y1="68" x2="786" y2="1042" gradientUnits="userSpaceOnUse">
      <stop stop-color="#F7F8F5"/>
      <stop offset="1" stop-color="#E5ECE4"/>
    </linearGradient>
    <linearGradient id="panel" x1="130" y1="90" x2="770" y2="1008" gradientUnits="userSpaceOnUse">
      <stop stop-color="#FFFFFF"/>
      <stop offset="1" stop-color="#EDF2EC"/>
    </linearGradient>
  </defs>

  <rect width="900" height="1100" fill="#DBE3DA"/>
  <rect x="48" y="48" width="804" height="1004" rx="44" fill="url(#page)"/>
  <rect x="84" y="84" width="732" height="932" rx="36" fill="url(#panel)"/>

  <circle cx="228" cy="214" r="116" fill="#199B49" fill-opacity="0.14"/>
  <circle cx="692" cy="828" r="154" fill="#199B49" fill-opacity="0.08"/>

  <path d="M164 204H566" stroke="#0B0B0B" stroke-opacity="0.08" stroke-width="2"/>
  <path d="M164 242H740" stroke="#0B0B0B" stroke-opacity="0.08" stroke-width="2"/>
  <path d="M278 292H740" stroke="#0B0B0B" stroke-opacity="0.08" stroke-width="2"/>

  <circle cx="450" cy="350" r="116" fill="#171717"/>
  <path d="M332 494H568V626C568 696 516 752 450 752C384 752 332 696 332 626V494Z" fill="#202020"/>
  <path d="M254 984C254 802 344 664 450 664C556 664 646 802 646 984H254Z" fill="#121212"/>
  <path d="M322 688L394 610H506L578 688L646 984H254L322 688Z" fill="#151515"/>
  <path d="M394 610L450 700L506 610" stroke="#F7F8F6" stroke-opacity="0.18" stroke-width="12" stroke-linecap="round" stroke-linejoin="round"/>
  <path d="M450 620L420 730H480L450 620Z" fill="#199B49"/>
  <path d="M420 730H480L462 834H438L420 730Z" fill="#199B49"/>

  <rect x="188" y="914" width="524" height="20" rx="10" fill="#0B0B0B" fill-opacity="0.08"/>
  <rect x="236" y="948" width="428" height="12" rx="6" fill="#0B0B0B" fill-opacity="0.06"/>
</svg>
